<svg width="80" height="18" viewBox="0 0 80 18" fill="none" xmlns="http://www.w3.org/2000/svg">
<path d="M0 10.128C0 8.752 0.256 7.544 0.768 6.504C1.296 5.464 2.008 4.664 2.904 4.104C3.8 3.544 4.8 3.264 5.904 3.264C6.848 3.264 7.672 3.456 8.376 3.84C9.096 4.224 9.648 4.728 10.032 5.352V3.456H14.136V16.848H10.032V14.952C9.632 15.576 9.072 16.08 8.352 16.464C7.648 16.848 6.824 17.04 5.88 17.04C4.792 17.04 3.8 16.76 2.904 16.2C2.008 15.624 1.296 14.816 0.768 13.776C0.256 12.72 0 11.504 0 10.128ZM10.032 10.152C10.032 9.128 9.744 8.32 9.168 7.728C8.608 7.136 7.92 6.84 7.104 6.84C6.288 6.84 5.592 7.136 5.016 7.728C4.456 8.304 4.176 9.104 4.176 10.128C4.176 11.152 4.456 11.968 5.016 12.576C5.592 13.168 6.288 13.464 7.104 13.464C7.92 13.464 8.608 13.168 9.168 12.576C9.744 11.984 10.032 11.176 10.032 10.152Z" fill="#9CA3AF"/>
<path d="M20.8011 13.68H26.1771V16.848H16.6971V0H20.8011V13.68Z" fill="#9CA3AF"/>
<path d="M33.8226 17.04C32.5106 17.04 31.3266 16.76 30.2706 16.2C29.2306 15.64 28.4066 14.84 27.7986 13.8C27.2066 12.76 26.9106 11.544 26.9106 10.152C26.9106 8.776 27.2146 7.568 27.8226 6.528C28.4306 5.472 29.2626 4.664 30.3186 4.104C31.3746 3.544 32.5586 3.264 33.8706 3.264C35.1826 3.264 36.3666 3.544 37.4226 4.104C38.4786 4.664 39.3106 5.472 39.9186 6.528C40.5266 7.568 40.8306 8.776 40.8306 10.152C40.8306 11.528 40.5186 12.744 39.8946 13.8C39.2866 14.84 38.4466 15.64 37.3746 16.2C36.3186 16.76 35.1346 17.04 33.8226 17.04ZM33.8226 13.488C34.6066 13.488 35.2706 13.2 35.8146 12.624C36.3746 12.048 36.6546 11.224 36.6546 10.152C36.6546 9.08 36.3826 8.256 35.8386 7.68C35.3106 7.104 34.6546 6.816 33.8706 6.816C33.0706 6.816 32.4066 7.104 31.8786 7.68C31.3506 8.24 31.0866 9.064 31.0866 10.152C31.0866 11.224 31.3426 12.048 31.8546 12.624C32.3826 13.2 33.0386 13.488 33.8226 13.488Z" fill="#9CA3AF"/>
<path d="M50.0638 13.368V16.848H47.9758C46.4878 16.848 45.3278 16.488 44.4958 15.768C43.6638 15.032 43.2478 13.84 43.2478 12.192V6.864H41.6158V3.456H43.2478V0.192H47.3518V3.456H50.0398V6.864H47.3518V12.24C47.3518 12.64 47.4478 12.928 47.6398 13.104C47.8318 13.28 48.1518 13.368 48.5998 13.368H50.0638Z" fill="#9CA3AF"/>
<path d="M55.9738 0V10.08C55.9738 11.088 56.2218 11.864 56.7178 12.408C57.2138 12.952 57.9418 13.224 58.9018 13.224C59.8618 13.224 60.5978 12.952 61.1098 12.408C61.6218 11.864 61.8778 11.088 61.8778 10.08V0H65.9818V10.056C65.9818 11.56 65.6618 12.832 65.0218 13.872C64.3818 14.912 63.5178 15.696 62.4298 16.224C61.3578 16.752 60.1578 17.016 58.8298 17.016C57.5018 17.016 56.3098 16.76 55.2538 16.248C54.2138 15.72 53.3898 14.936 52.7818 13.896C52.1738 12.84 51.8698 11.56 51.8698 10.056V0H55.9738Z" fill="#9CA3AF"/>
<path d="M73.9037 17.04C72.7357 17.04 71.6957 16.84 70.7837 16.44C69.8717 16.04 69.1517 15.496 68.6237 14.808C68.0957 14.104 67.7997 13.32 67.7357 12.456H71.7917C71.8397 12.92 72.0557 13.296 72.4397 13.584C72.8237 13.872 73.2957 14.016 73.8557 14.016C74.3677 14.016 74.7597 13.92 75.0317 13.728C75.3197 13.52 75.4637 13.256 75.4637 12.936C75.4637 12.552 75.2637 12.272 74.8637 12.096C74.4637 11.904 73.8157 11.696 72.9197 11.472C71.9597 11.248 71.1597 11.016 70.5197 10.776C69.8797 10.52 69.3277 10.128 68.8637 9.6C68.3997 9.056 68.1677 8.328 68.1677 7.416C68.1677 6.648 68.3757 5.952 68.7917 5.328C69.2237 4.688 69.8477 4.184 70.6637 3.816C71.4957 3.448 72.4797 3.264 73.6157 3.264C75.2957 3.264 76.6157 3.68 77.5757 4.512C78.5517 5.344 79.1117 6.448 79.2557 7.824H75.4637C75.3997 7.36 75.1917 6.992 74.8397 6.72C74.5037 6.448 74.0557 6.312 73.4957 6.312C73.0157 6.312 72.6477 6.408 72.3917 6.6C72.1357 6.776 72.0077 7.024 72.0077 7.344C72.0077 7.728 72.2077 8.016 72.6077 8.208C73.0237 8.4 73.6637 8.592 74.5277 8.784C75.5197 9.04 76.3277 9.296 76.9517 9.552C77.5757 9.792 78.1197 10.192 78.5837 10.752C79.0637 11.296 79.3117 12.032 79.3277 12.96C79.3277 13.744 79.1037 14.448 78.6557 15.072C78.2237 15.68 77.5917 16.16 76.7597 16.512C75.9437 16.864 74.9917 17.04 73.9037 17.04Z" fill="#9CA3AF"/>
</svg>
