<svg width="16" height="16" viewBox="0 0 16 16" fill="none" xmlns="http://www.w3.org/2000/svg">
<path fill-rule="evenodd" clip-rule="evenodd" d="M14.9793 15.0126C14.9518 15.0401 14.9072 15.0401 14.8796 15.0126L1.02065 1.15356C0.993122 1.12603 0.993122 1.08139 1.02065 1.05385C1.04819 1.02632 1.09283 1.02632 1.12036 1.05385L14.9793 14.9128C15.0069 14.9404 15.0069 14.985 14.9793 15.0126Z" fill="#686868"/>
<path fill-rule="evenodd" clip-rule="evenodd" d="M14.9793 1.05457C15.0069 1.08211 15.0069 1.12675 14.9793 1.15428L1.12035 15.0133C1.09282 15.0408 1.04818 15.0408 1.02065 15.0133C0.993117 14.9857 0.993117 14.9411 1.02065 14.9136L14.8796 1.05457C14.9072 1.02704 14.9518 1.02704 14.9793 1.05457Z" fill="#686868"/>
<path fill-rule="evenodd" clip-rule="evenodd" d="M14.9793 15.0126C14.9518 15.0401 14.9072 15.0401 14.8796 15.0126L1.02065 1.15356C0.993122 1.12603 0.993122 1.08139 1.02065 1.05385C1.04819 1.02632 1.09283 1.02632 1.12036 1.05385L14.9793 14.9128C15.0069 14.9404 15.0069 14.985 14.9793 15.0126Z" stroke="#686868" stroke-width="0.5" stroke-linejoin="round"/>
<path fill-rule="evenodd" clip-rule="evenodd" d="M14.9793 1.05457C15.0069 1.08211 15.0069 1.12675 14.9793 1.15428L1.12035 15.0133C1.09282 15.0408 1.04818 15.0408 1.02065 15.0133C0.993117 14.9857 0.993117 14.9411 1.02065 14.9136L14.8796 1.05457C14.9072 1.02704 14.9518 1.02704 14.9793 1.05457Z" stroke="#686868" stroke-width="0.5" stroke-linejoin="round"/>
</svg>
